<?xml version="1.0" encoding="UTF-8"?>
<svg id="Layer_1" xmlns="http://www.w3.org/2000/svg" version="1.1" viewBox="0 0 134 13" width="200" height="20">
  <!-- Generator: Adobe Illustrator 30.0.0, SVG Export Plug-In . SVG Version: 2.1.1 Build 123)  -->
  <defs>
    <style>
      .st0 {
        fill: #fff;
      }
    </style>
  </defs>
  <path class="st0" d="M15.63,5.65c-.06-.69-.28-1.22-.66-1.59s-.9-.55-1.55-.55c-.84,0-1.48.26-1.92.78-.44.52-.67,1.27-.67,2.26s.22,1.73.67,2.24,1.09.78,1.92.78c.61,0,1.09-.15,1.47-.46s.62-.76.73-1.36h4.52c-.21,1.56-.88,2.73-2.01,3.53-1.14.79-2.71,1.19-4.71,1.19-2.25,0-3.94-.5-5.09-1.49-1.14-1-1.72-2.47-1.72-4.42s.57-3.43,1.72-4.43,2.84-1.49,5.09-1.49c2.1,0,3.72.43,4.87,1.3s1.76,2.1,1.83,3.72h-4.48Z"/>
  <path class="st0" d="M29.29.93c.88,0,1.58.05,2.11.14s.94.24,1.24.44c.38.25.67.58.86,1s.3.9.3,1.45c0,.66-.15,1.25-.44,1.75-.3.5-.7.87-1.22,1.09.45.21.76.46.94.77s.29.85.32,1.62c0,.09,0,.21.01.36.06,1.47.24,2.29.53,2.45v.17h-4.35c-.13-.24-.21-.7-.22-1.38,0-.4-.02-.71-.05-.93-.04-.41-.17-.7-.37-.87s-.55-.25-1.04-.25h-2.34v3.43h-3.97V.93h7.7ZM25.56,5.79h2.28c.6,0,1.02-.08,1.26-.24.24-.16.37-.42.37-.79s-.12-.62-.35-.76c-.23-.14-.69-.22-1.38-.22h-2.19v2.01Z"/>
  <path class="st0" d="M38.2,12.17v-3.18L33.76.93h4.61l1.82,4.63,1.93-4.63h4.5l-4.5,8.06v3.18h-3.92Z"/>
  <path class="st0" d="M47.13,12.17V.93h10.09v2.76h-6.17v1.53h5.04v2.77h-5.04v4.19h-3.92Z"/>
  <path class="st0" d="M61.05,12.17V3.78h-3.66V.93h11.24v2.85h-3.67v8.39h-3.92Z"/>
  <path class="st0" d="M76.46,12.17V.93h3.92v8.15h6.17v3.09h-10.09Z"/>
  <path class="st0" d="M87.06,12.17l4.38-11.24h4.97l4.09,11.24h-4.25l-.33-1.1h-4.3l-.36,1.1h-4.2ZM92.54,8.29h2.51l-1.22-3.95-1.29,3.95Z"/>
  <path class="st0" d="M109.35.93c1.41,0,2.41.22,3,.65.58.43.88,1.15.88,2.15,0,.55-.11,1.04-.34,1.45-.23.42-.56.75-1,1.01.58.21,1.02.55,1.32,1.01.3.47.44,1.05.44,1.75,0,1.07-.31,1.87-.94,2.41s-1.57.8-2.84.8h-8.65V.93h8.13ZM105.13,3.56v1.59h2.63c.57,0,.94-.06,1.11-.17.17-.11.25-.32.25-.62s-.08-.51-.23-.63-.53-.17-1.13-.17h-2.63ZM105.13,9.36h2.78c.64,0,1.05-.07,1.24-.2.19-.13.28-.37.28-.71s-.1-.6-.29-.73c-.2-.13-.61-.2-1.23-.2h-2.78v1.85Z"/>
  <path class="st0" d="M114.68,8.75h4.74c.04.3.21.53.51.7.31.17.72.25,1.25.25s.92-.07,1.19-.2c.26-.13.39-.34.39-.6,0-.24-.11-.43-.34-.57-.23-.14-.58-.25-1.05-.32l-2.93-.4c-1.21-.16-2.12-.52-2.74-1.09-.61-.56-.92-1.31-.92-2.26,0-1.26.46-2.17,1.39-2.75.93-.58,2.41-.87,4.43-.87s3.67.29,4.7.87,1.58,1.48,1.66,2.7h-4.55c-.05-.35-.24-.62-.57-.8-.33-.18-.8-.27-1.4-.27-.44,0-.78.07-1.03.2s-.38.32-.38.54c0,.21.1.38.29.49.19.11.6.22,1.21.31l3.57.56c1.12.18,1.95.54,2.5,1.08s.83,1.28.83,2.2c0,1.38-.55,2.39-1.65,3.03s-2.84.96-5.22.96c-1.89,0-3.33-.32-4.34-.97-1.01-.65-1.52-1.58-1.54-2.79Z"/>
</svg>